<?xml version="1.0" encoding="UTF-8" standalone="no"?>
<!DOCTYPE svg PUBLIC "-//W3C//DTD SVG 1.1//EN"
 "http://www.w3.org/Graphics/SVG/1.1/DTD/svg11.dtd">
<!-- Generated by graphviz version 2.38.0 (20140413.2041)
 -->
<!-- Title: G Pages: 1 -->
<svg width="206pt" height="260pt"
 viewBox="0.00 0.00 206.00 260.00" xmlns="http://www.w3.org/2000/svg" xmlns:xlink="http://www.w3.org/1999/xlink">
<g id="graph0" class="graph" transform="scale(1 1) rotate(0) translate(4 256)">
<title>G</title>
<polygon fill="white" stroke="none" points="-4,4 -4,-256 202,-256 202,4 -4,4"/>
<!-- op1 -->
<g id="node1" class="node"><title>op1</title>
<text text-anchor="middle" x="63" y="-86.3" font-family="Times,serif" font-size="14.00">op</text>
</g>
<!-- z -->
<g id="node4" class="node"><title>z</title>
<text text-anchor="middle" x="27" y="-14.3" font-family="Times,serif" font-size="14.00">z</text>
</g>
<!-- op1&#45;&gt;z -->
<g id="edge1" class="edge"><title>op1&#45;&gt;z</title>
<path fill="none" stroke="black" d="M54.1011,-71.6966C48.5209,-60.8463 41.3572,-46.9167 35.7965,-36.1043"/>
</g>
<!-- x1 -->
<g id="node5" class="node"><title>x1</title>
<text text-anchor="middle" x="99" y="-14.3" font-family="Times,serif" font-size="14.00">x1</text>
</g>
<!-- op1&#45;&gt;x1 -->
<g id="edge2" class="edge"><title>op1&#45;&gt;x1</title>
<path fill="none" stroke="black" d="M71.8989,-71.6966C77.4791,-60.8463 84.6428,-46.9167 90.2035,-36.1043"/>
</g>
<!-- op2 -->
<g id="node2" class="node"><title>op2</title>
<text text-anchor="middle" x="99" y="-158.3" font-family="Times,serif" font-size="14.00">op</text>
</g>
<!-- op2&#45;&gt;op1 -->
<g id="edge3" class="edge"><title>op2&#45;&gt;op1</title>
<path fill="none" stroke="black" d="M90.1011,-143.697C84.5209,-132.846 77.3572,-118.917 71.7965,-108.104"/>
</g>
<!-- x2 -->
<g id="node6" class="node"><title>x2</title>
<text text-anchor="middle" x="135" y="-86.3" font-family="Times,serif" font-size="14.00">x2</text>
</g>
<!-- op2&#45;&gt;x2 -->
<g id="edge4" class="edge"><title>op2&#45;&gt;x2</title>
<path fill="none" stroke="black" d="M107.899,-143.697C113.479,-132.846 120.643,-118.917 126.203,-108.104"/>
</g>
<!-- op3 -->
<g id="node3" class="node"><title>op3</title>
<text text-anchor="middle" x="135" y="-230.3" font-family="Times,serif" font-size="14.00">op</text>
</g>
<!-- op3&#45;&gt;op2 -->
<g id="edge5" class="edge"><title>op3&#45;&gt;op2</title>
<path fill="none" stroke="black" stroke-dasharray="1,5" d="M126.101,-215.697C120.521,-204.846 113.357,-190.917 107.797,-180.104"/>
</g>
<!-- xn -->
<g id="node7" class="node"><title>xn</title>
<text text-anchor="middle" x="171" y="-158.3" font-family="Times,serif" font-size="14.00">xn</text>
</g>
<!-- op3&#45;&gt;xn -->
<g id="edge6" class="edge"><title>op3&#45;&gt;xn</title>
<path fill="none" stroke="black" d="M143.899,-215.697C149.479,-204.846 156.643,-190.917 162.203,-180.104"/>
</g>
</g>
</svg>
