<?xml version="1.0" encoding="UTF-8" standalone="no"?>
<!DOCTYPE svg PUBLIC "-//W3C//DTD SVG 1.1//EN"
 "http://www.w3.org/Graphics/SVG/1.1/DTD/svg11.dtd">
<!-- Generated by graphviz version 2.38.0 (20140413.2041)
 -->
<!-- Title: G Pages: 1 -->
<svg width="206pt" height="260pt"
 viewBox="0.00 0.00 206.00 260.00" xmlns="http://www.w3.org/2000/svg" xmlns:xlink="http://www.w3.org/1999/xlink">
<g id="graph0" class="graph" transform="scale(1 1) rotate(0) translate(4 256)">
<title>G</title>
<polygon fill="white" stroke="none" points="-4,4 -4,-256 202,-256 202,4 -4,4"/>
<!-- op1 -->
<g id="node1" class="node"><title>op1</title>
<text text-anchor="middle" x="63" y="-230.3" font-family="Times,serif" font-size="14.00">op</text>
</g>
<!-- op2 -->
<g id="node2" class="node"><title>op2</title>
<text text-anchor="middle" x="99" y="-158.3" font-family="Times,serif" font-size="14.00">op</text>
</g>
<!-- op1&#45;&gt;op2 -->
<g id="edge2" class="edge"><title>op1:se&#45;&gt;op2</title>
<path fill="none" stroke="black" d="M81,-216C90.4825,-206.518 94.9722,-191.857 97.0966,-180.357"/>
</g>
<!-- x1 -->
<g id="node5" class="node"><title>x1</title>
<text text-anchor="middle" x="27" y="-158.3" font-family="Times,serif" font-size="14.00">x1</text>
</g>
<!-- op1&#45;&gt;x1 -->
<g id="edge1" class="edge"><title>op1:sw&#45;&gt;x1</title>
<path fill="none" stroke="black" d="M45,-216C35.5175,-206.518 31.0278,-191.857 28.9034,-180.357"/>
</g>
<!-- op3 -->
<g id="node3" class="node"><title>op3</title>
<text text-anchor="middle" x="135" y="-86.3" font-family="Times,serif" font-size="14.00">op</text>
</g>
<!-- op2&#45;&gt;op3 -->
<g id="edge4" class="edge"><title>op2:se&#45;&gt;op3</title>
<path fill="none" stroke="black" stroke-dasharray="1,5" d="M117,-144C126.482,-134.518 130.972,-119.857 133.097,-108.357"/>
</g>
<!-- x2 -->
<g id="node6" class="node"><title>x2</title>
<text text-anchor="middle" x="63" y="-86.3" font-family="Times,serif" font-size="14.00">x2</text>
</g>
<!-- op2&#45;&gt;x2 -->
<g id="edge3" class="edge"><title>op2:sw&#45;&gt;x2</title>
<path fill="none" stroke="black" d="M81,-144C71.5175,-134.518 67.0278,-119.857 64.9034,-108.357"/>
</g>
<!-- x_n -->
<g id="node4" class="node"><title>x_n</title>
<text text-anchor="middle" x="99" y="-14.3" font-family="Times,serif" font-size="14.00">x_n&#45;1</text>
</g>
<!-- op3&#45;&gt;x_n -->
<g id="edge5" class="edge"><title>op3:sw&#45;&gt;x_n</title>
<path fill="none" stroke="black" d="M117,-72C107.518,-62.5175 103.028,-47.8572 100.903,-36.3568"/>
</g>
<!-- xn -->
<g id="node7" class="node"><title>xn</title>
<text text-anchor="middle" x="171" y="-14.3" font-family="Times,serif" font-size="14.00">xn</text>
</g>
<!-- op3&#45;&gt;xn -->
<g id="edge6" class="edge"><title>op3:se&#45;&gt;xn</title>
<path fill="none" stroke="black" d="M153,-72C162.482,-62.5175 166.972,-47.8572 169.097,-36.3568"/>
</g>
</g>
</svg>
